<svg width="16" height="16" viewBox="0 0 16 16" fill="none" xmlns="http://www.w3.org/2000/svg">
<path fill-rule="evenodd" clip-rule="evenodd" d="M2.33334 6.87848C2.33334 3.81191 4.89593 1.33331 7.99564 1.33331C11.1041 1.33331 13.6667 3.81191 13.6667 6.87848C13.6667 8.42377 13.1047 9.8584 12.1797 11.0744C11.1592 12.4157 9.90145 13.5843 8.48571 14.5016C8.16168 14.7136 7.86926 14.7296 7.51364 14.5016C6.08983 13.5843 4.83207 12.4157 3.82034 11.0744C2.89467 9.8584 2.33334 8.42377 2.33334 6.87848ZM6.12946 7.05115C6.12946 8.07845 6.96775 8.88643 7.99561 8.88643C9.02414 8.88643 9.87049 8.07845 9.87049 7.05115C9.87049 6.03185 9.02414 5.18454 7.99561 5.18454C6.96775 5.18454 6.12946 6.03185 6.12946 7.05115Z" fill="#2C2D5B"/>
</svg>
